<svg width="180" height="190" viewBox="0 0 180 190" fill="none" xmlns="http://www.w3.org/2000/svg">
  <path fill-rule="evenodd" clip-rule="evenodd" d="M138.393 32.5721C132.315 26.4942 122.472 26.4942 116.394 32.5721L4.56189 144.404C-1.51607 150.482 -1.51607 160.325 4.56189 166.403L23.0913 184.932C29.1693 191.01 39.0122 191.01 45.0902 184.932L156.922 73.1004C163 67.0224 163 57.1795 156.922 51.1015L138.393 32.5721ZM125.826 42.0039C126.699 41.1301 128.1 41.1301 128.974 42.0039L147.503 60.5333C148.377 61.4071 148.377 62.8077 147.503 63.6815L129.616 81.5684L107.939 59.8908L125.826 42.0039ZM98.5197 69.3097L13.9808 153.823C13.107 154.684 13.107 156.097 13.9808 156.958L32.5102 175.488C33.384 176.361 34.7847 176.361 35.6584 175.488L120.185 90.9616L98.5068 69.284L98.5197 69.3097Z" fill="#744BC4"/>
  <path d="M65.5582 26.1587C62.063 22.6635 55.561 21.3786 55.561 18.3846C55.561 15.3906 62.063 14.1056 65.5582 10.6104C69.0533 7.11528 70.0941 0.613281 73.3323 0.613281C76.5704 0.613281 77.6113 7.11528 81.1064 10.6104C84.6016 14.1056 91.1036 15.3906 91.1036 18.3846C91.1036 21.3786 84.6016 22.6635 81.1064 26.1587C77.6113 29.6538 76.5704 36.1558 73.3323 36.1558C70.0941 36.1558 69.0533 29.6538 65.5582 26.1587Z" fill="#744BC4"/>
  <path d="M26.1228 65.5956C20.88 60.3529 11.127 58.4254 11.127 53.928C11.127 49.4306 20.88 47.5159 26.1228 42.2604C31.3655 37.0176 32.9203 27.2646 37.7904 27.2646C42.6605 27.2646 44.2024 37.0176 49.458 42.2604C54.7007 47.5031 64.4537 49.4306 64.4537 53.928C64.4537 58.4254 54.7007 60.34 49.458 65.5956C44.2153 70.8383 42.6605 80.5913 37.7904 80.5913C32.9203 80.5913 31.3783 70.8383 26.1228 65.5956Z" fill="#744BC4"/>
  <path d="M154.441 132.812C150.946 129.317 144.444 128.032 144.444 125.038C144.444 122.044 150.946 120.759 154.441 117.264C157.937 113.769 158.977 107.267 162.216 107.267C165.454 107.267 166.495 113.769 169.99 117.264C173.485 120.759 179.987 122.044 179.987 125.038C179.987 128.032 173.485 129.317 169.99 132.812C166.495 136.307 165.454 142.809 162.216 142.809C158.977 142.809 157.937 136.307 154.441 132.812Z" fill="#744BC4"/>
</svg>
