<svg width="180" height="171" viewBox="0 0 180 171" fill="none" xmlns="http://www.w3.org/2000/svg">
<g clip-path="url(#clip0_1016_4536)">
<mask id="mask0_1016_4536" style="mask-type:luminance" maskUnits="userSpaceOnUse" x="0" y="0" width="180" height="171">
<path d="M0 170.063H180V-1.52588e-05H0V170.063Z" fill="white"/>
</mask>
<g mask="url(#mask0_1016_4536)">
<path d="M38.672 97.7552C14.569 76.2707 0.13401 83.4546 -0.0669861 74.0551C-0.201988 64.6558 14.502 71.3696 37.799 49.0118C61.096 26.6548 51.361 10.4748 61.499 10.2728C71.637 10.0718 62.439 26.6548 86.542 48.1398C110.645 69.6238 125.08 62.4398 125.281 71.8395C125.416 81.239 110.712 74.5251 87.4148 96.8824C64.118 119.24 73.853 135.42 63.715 135.622C53.577 135.823 62.775 119.307 38.672 97.7552Z" fill="#744BC4"/>
<path d="M122.126 147.975C106.617 134.144 99.5674 136.494 99.4331 130.451C99.2988 124.409 106.483 126.49 121.522 112.189C136.494 97.8216 132.533 89.6307 139.045 89.4964C145.558 89.3621 141.865 97.7545 157.307 111.585C172.816 125.416 179.866 123.066 180 129.109C180.134 135.151 172.95 133.07 157.911 147.37C142.939 161.738 146.968 169.929 140.455 170.063C133.943 170.198 137.635 161.805 122.193 147.975H122.126Z" fill="#744BC4"/>
<path d="M126.221 39.0088C115.882 29.8098 111.182 31.3548 111.115 27.3258C111.048 23.2978 115.814 24.7078 125.818 15.1068C135.822 5.5058 133.136 0.0677986 137.5 0.000797272C141.864 -0.0662041 139.38 5.5058 149.72 14.7038C160.059 23.9018 164.759 22.3578 164.826 26.3858C164.893 30.4148 160.126 29.0048 150.122 38.6058C140.119 48.2068 142.804 53.6448 138.44 53.7118C134.076 53.7788 136.56 48.2068 126.221 39.0088Z" fill="#744BC4"/>
</g>
</g>
<defs>
<clipPath id="clip0_1016_4536">
<rect width="180" height="171" fill="white"/>
</clipPath>
</defs>
</svg>
