<svg width="181" height="171" viewBox="0 0 181 171" fill="none" xmlns="http://www.w3.org/2000/svg">
  <path d="M141.328 72.3156C165.431 93.8001 179.866 86.6162 180.067 96.0157C180.202 105.415 165.498 98.7012 142.201 121.059C118.904 143.416 128.639 159.596 118.501 159.798C108.363 159.999 117.561 143.416 93.458 121.931C69.355 100.447 54.9201 107.631 54.7187 98.2313C54.5844 88.8318 69.2879 95.5457 92.5852 73.1884C115.882 50.831 106.147 34.6505 116.285 34.4491C126.423 34.2477 117.225 50.7639 141.328 72.3156Z" fill="#744BC4"/>
  <path d="M57.8739 22.0962C73.383 35.9269 80.4326 33.577 80.5669 39.6195C80.7012 45.6621 73.5173 43.5807 58.4781 57.8814C43.5061 72.2492 47.4673 80.4401 40.9548 80.5744C34.4423 80.7087 38.135 72.3163 22.693 58.4856C7.18379 44.655 0.134173 47.0048 -0.000105669 40.9623C-0.134384 34.9198 7.04951 37.0011 22.0887 22.7005C37.0607 8.3327 33.0324 0.141725 39.5449 0.00744684C46.0574 -0.126831 42.3647 8.26556 57.8067 22.0962H57.8739Z" fill="#744BC4"/>
  <path d="M53.7795 131.062C64.1189 140.261 68.8186 138.716 68.8858 142.745C68.9529 146.773 64.186 145.363 54.1823 154.964C44.1786 164.565 46.8642 170.003 42.5001 170.07C38.1361 170.137 40.6202 164.565 30.2808 155.367C19.9414 146.169 15.2416 147.713 15.1745 143.685C15.1073 139.656 19.8742 141.066 29.878 131.465C39.8817 121.864 37.1961 116.426 41.5602 116.359C45.9242 116.292 43.4401 121.864 53.7795 131.062Z" fill="#744BC4"/>
</svg>

